<?xml version="1.0" standalone="no"?>
<!DOCTYPE svg PUBLIC "-//W3C//DTD SVG 20010904//EN"
 "http://www.w3.org/TR/2001/REC-SVG-20010904/DTD/svg10.dtd">
<svg version="1.0" xmlns="http://www.w3.org/2000/svg"
 width="2500.000000pt" height="2500.000000pt" viewBox="0 0 2500.000000 2500.000000"
 preserveAspectRatio="xMidYMid meet">
<metadata>
Created by potrace 1.14, written by Peter Selinger 2001-2017
</metadata>
<g transform="translate(0.000000,2500.000000) scale(0.100000,-0.100000)"
fill="#000000" stroke="none">
<path d="M11745 24883 c-118 -5 -429 -31 -635 -54 -141 -16 -262 -22 -437 -23
l-241 -1 65 -26 66 -26 -90 -6 c-167 -12 -300 -51 -548 -159 -235 -102 -425
-173 -552 -204 -62 -15 -112 -28 -110 -30 1 -1 47 2 101 7 55 5 103 8 109 6 5
-1 -128 -41 -295 -88 -472 -134 -540 -168 -710 -351 -137 -148 -314 -327 -363
-367 -38 -31 -38 -32 -8 -17 18 9 55 30 83 46 27 16 50 28 50 26 0 -2 -28 -25
-62 -51 -285 -221 -449 -389 -664 -681 -170 -231 -283 -389 -325 -454 -62 -96
-191 -348 -245 -480 -47 -116 -350 -999 -339 -988 4 4 26 49 49 100 74 165
187 352 314 523 91 122 127 159 61 65 -52 -75 -196 -398 -265 -594 -19 -54
-14 -46 41 59 26 50 89 153 141 230 108 163 165 235 105 134 -145 -243 -313
-665 -420 -1054 -43 -154 -65 -262 -101 -475 -16 -102 -41 -234 -55 -294 -14
-60 -24 -111 -22 -112 1 -2 25 55 51 127 27 71 50 128 51 127 2 -2 -3 -48 -10
-103 -8 -55 -19 -208 -25 -340 -6 -132 -20 -418 -30 -636 -11 -217 -20 -449
-20 -515 0 -109 -13 -280 -25 -329 -3 -11 7 3 21 30 l25 50 -6 -45 c-3 -25
-12 -94 -20 -155 -8 -60 -17 -207 -20 -325 l-4 -215 17 69 17 69 1 -224 c1
-144 9 -306 23 -454 12 -126 25 -291 28 -365 l6 -135 18 64 c10 35 21 66 24
69 3 3 5 -33 5 -80 0 -47 9 -143 19 -214 22 -149 46 -382 39 -389 -2 -3 -20 0
-39 5 -55 16 -124 12 -196 -12 -87 -29 -175 -109 -226 -205 -100 -192 -96
-356 20 -697 56 -168 59 -210 39 -631 -31 -652 -41 -1146 -28 -1383 33 -593
130 -894 363 -1131 175 -178 307 -241 501 -241 84 0 195 19 260 45 21 8 22 3
43 -285 52 -725 110 -999 291 -1367 122 -248 308 -512 683 -968 828 -1006
1637 -1931 1894 -2164 26 -24 47 -47 47 -50 0 -4 -16 -13 -35 -19 -50 -19
-135 -84 -360 -277 -246 -211 -320 -270 -708 -561 -301 -226 -311 -232 -460
-299 -396 -177 -1402 -654 -2387 -1130 -338 -164 -687 -331 -775 -372 -176
-82 -222 -108 -340 -197 -408 -308 -754 -802 -866 -1239 -43 -170 -419 -2351
-419 -2433 0 -12 1222 -14 9215 -14 6237 0 9215 3 9215 10 0 48 -470 1930
-620 2478 -76 281 -174 615 -195 667 -32 77 -109 221 -155 290 -251 373 -734
708 -1235 857 -233 69 -1180 440 -2175 853 -847 350 -1125 468 -1140 481 -8 7
-26 17 -40 22 -64 25 -581 489 -1005 903 -178 174 -272 242 -385 279 -41 14
-77 26 -80 28 -2 2 -7 40 -11 84 l-7 81 172 221 c315 405 525 710 888 1291
481 770 706 1160 878 1525 210 445 229 556 237 1348 5 474 7 512 22 499 32
-29 118 -66 178 -77 67 -12 149 -3 234 25 118 40 278 174 410 345 133 172 199
300 247 479 25 95 25 101 28 511 3 458 18 884 36 1030 16 126 15 641 0 805
-42 424 -145 715 -349 983 -84 110 -210 232 -281 272 -35 19 -69 40 -77 45
-11 7 -28 92 -59 285 -89 552 -101 665 -112 1090 -5 224 -5 224 46 78 13 -37
25 -66 27 -64 10 10 -55 253 -119 444 -90 268 -84 245 -59 237 25 -8 26 -3 6
90 -8 39 -31 185 -50 325 -109 791 -271 1516 -446 1995 -157 430 -405 878
-708 1280 -63 83 -120 168 -127 189 -22 62 -97 193 -160 281 -170 237 -435
509 -1154 1180 -570 533 -524 495 -407 335 l69 -95 -192 193 c-213 213 -274
262 -412 326 -207 97 -443 153 -868 205 -135 17 -281 37 -325 45 -104 19 -380
80 -470 105 -38 11 -71 18 -72 17 -2 -2 67 -29 152 -61 85 -32 153 -60 152
-62 -2 -2 -105 21 -228 51 -123 30 -260 59 -304 65 -89 11 -262 18 -370 14z
m3005 -2714 c-25 -11 -34 -17 -20 -14 149 34 286 44 365 26 24 -6 11 -10 -62
-19 -91 -12 -220 -46 -237 -62 -4 -5 11 -4 35 2 24 5 98 8 164 5 133 -6 222
-28 355 -89 421 -195 1080 -1012 1333 -1653 49 -123 135 -419 206 -709 53
-214 122 -525 120 -544 0 -4 -36 64 -80 152 -44 87 -82 157 -83 155 -2 -2 5
-49 15 -104 27 -148 26 -337 -5 -575 -25 -200 -50 -504 -62 -760 l-6 -145 85
-210 c48 -115 85 -210 84 -212 -2 -1 -58 99 -126 222 -67 123 -129 232 -137
242 -13 17 -14 16 -9 -7 3 -14 19 -97 35 -185 78 -413 129 -640 260 -1145 233
-899 314 -1395 329 -2020 17 -653 -38 -1394 -154 -2075 -62 -366 -103 -488
-245 -716 -135 -218 -435 -557 -664 -750 l-71 -60 -130 -372 -130 -372 -2 130
c-4 238 -24 649 -35 720 -6 39 -10 131 -9 205 6 436 -83 640 -438 1003 l-136
139 -27 -33 c-16 -18 -28 -37 -28 -42 0 -4 -10 -18 -21 -30 -12 -12 -18 -16
-14 -8 5 9 4 12 -2 8 -6 -4 -14 -22 -17 -42 -4 -19 -12 -37 -18 -41 -7 -5 -8
-2 -3 6 5 9 4 11 -3 6 -7 -4 -15 -21 -20 -39 -5 -18 -14 -33 -20 -33 -7 -1
-17 -2 -23 -3 -6 0 -9 -8 -5 -16 3 -8 1 -15 -4 -15 -6 0 -9 -3 -9 -7 1 -5 1
-17 0 -28 -1 -17 -3 -18 -11 -5 -8 13 -10 12 -10 -2 0 -10 -4 -18 -10 -18 -5
0 -10 -6 -10 -14 0 -8 -10 -22 -22 -30 -12 -9 -18 -16 -13 -16 6 0 4 -4 -3 -9
-8 -5 -15 -20 -15 -35 -1 -16 -8 -26 -17 -26 -16 0 -298 48 -610 105 -236 42
-250 43 -188 8 27 -14 46 -28 45 -30 -2 -1 -54 15 -116 37 -61 22 -115 40
-119 40 -4 0 34 -27 83 -61 50 -34 81 -59 70 -56 -11 2 -98 26 -193 52 -96 25
-176 44 -178 42 -3 -3 11 -15 31 -27 20 -12 34 -24 32 -26 -2 -2 -41 4 -87 12
-112 21 -212 16 -270 -15 -54 -28 -347 -223 -671 -447 l-236 -163 -324 115
c-362 128 -656 225 -739 244 -51 11 -61 10 -132 -14 -42 -14 -133 -50 -202
-79 -69 -30 -126 -53 -126 -52 0 2 41 29 90 60 50 32 89 59 87 61 -2 2 -77
-30 -167 -71 -90 -41 -164 -74 -165 -73 -2 2 46 41 106 88 59 47 108 88 109
91 0 4 -75 -15 -167 -43 -93 -27 -267 -74 -388 -104 -241 -60 -963 -209 -972
-201 -3 3 -1 12 3 19 10 15 15 43 7 35 -3 -3 -17 5 -32 19 -14 13 -33 31 -41
38 -31 29 -46 20 -141 -84 -117 -130 -154 -176 -211 -265 -88 -136 -99 -194
-74 -385 41 -301 72 -439 165 -727 27 -84 47 -153 46 -153 -2 0 -100 168 -220
373 l-217 373 -106 53 c-268 133 -549 311 -743 471 -31 25 -114 566 -158 1035
-44 455 -76 1194 -69 1600 l3 200 50 11 c28 6 67 19 87 28 34 17 227 203 294
285 l28 34 -69 -45 c-39 -25 -117 -76 -175 -113 -58 -37 -129 -85 -158 -107
-29 -23 -55 -38 -58 -35 -3 3 -1 183 5 401 l10 395 67 145 c77 166 127 234
250 337 402 338 1030 509 1870 509 178 0 264 -4 271 -11 7 -7 79 -12 205 -14
106 -2 253 -10 327 -19 130 -16 135 -16 155 3 14 13 27 16 41 11 11 -4 28 -3
38 2 11 6 17 5 17 -2 0 -6 5 -8 12 -4 16 10 58 12 58 3 0 -4 13 -4 29 1 21 6
38 4 58 -7 22 -12 66 -16 196 -17 92 0 167 2 167 6 0 3 -11 15 -24 25 -108 84
-366 309 -366 319 0 7 5 16 10 19 26 16 -4 54 -182 230 -105 105 -183 178
-172 163 10 -15 61 -82 113 -150 l94 -123 -174 172 -174 172 -95 10 c-314 35
-791 42 -1080 16 -362 -32 -674 -111 -849 -215 -108 -63 -266 -204 -335 -299
-25 -33 -25 -33 -31 -10 -14 63 -825 4055 -825 4066 0 38 174 296 269 397 62
66 55 63 -89 -43 -82 -60 -82 -55 6 60 92 121 194 197 408 306 125 63 334 177
421 230 l40 24 -35 -33 c-20 -18 -62 -57 -95 -87 -33 -29 -49 -46 -35 -37 466
295 954 503 1383 590 216 45 652 62 886 36 57 -6 105 -10 107 -8 2 2 -59 19
-136 38 -77 19 -138 35 -136 37 2 2 173 -15 381 -37 208 -22 382 -39 388 -37
5 1 -70 25 -166 52 -97 27 -174 51 -173 53 2 2 160 -18 351 -43 191 -25 351
-45 356 -43 5 2 -75 32 -177 68 -102 35 -181 66 -175 68 6 2 124 -8 262 -23
138 -15 253 -25 255 -22 3 2 -76 30 -176 62 -99 32 -178 60 -176 62 2 2 133
-10 291 -27 159 -17 295 -30 302 -28 8 2 -65 25 -161 52 -97 27 -175 51 -173
52 1 1 90 -8 197 -21 505 -61 930 -89 1025 -68 36 8 19 13 -195 57 -129 27
-236 49 -238 51 -1 1 91 0 205 -2 191 -5 664 19 863 43 l55 7 -130 28 -130 28
105 -7 c261 -17 613 -4 810 30 84 14 60 23 -85 32 -121 7 -332 31 -410 46 -35
6 43 8 249 5 325 -4 503 5 666 34 134 24 145 24 90 0z m3165 -6056 c81 -54
175 -149 240 -243 l27 -39 -36 -68 c-20 -37 -81 -122 -137 -188 -135 -161
-208 -273 -289 -440 -78 -160 -136 -313 -185 -489 -24 -87 -34 -111 -34 -85
-1 57 28 462 44 609 25 227 29 243 88 315 l25 30 10 -35 10 -35 2 45 c1 43 5
50 111 159 60 62 112 125 115 138 9 35 -3 160 -24 266 -10 48 -16 87 -12 87 3
0 23 -12 45 -27z m-11451 -823 c30 -102 80 -187 123 -213 21 -12 63 -20 130
-25 l98 -7 25 -50 c13 -27 46 -112 72 -190 l49 -140 -6 75 c-3 41 -8 89 -10
105 -9 59 56 -95 91 -218 122 -425 178 -930 249 -2247 9 -162 22 -403 29 -535
8 -132 11 -243 7 -247 -3 -4 -42 -19 -86 -35 -66 -23 -97 -28 -175 -28 -86 0
-102 3 -160 31 -143 67 -295 239 -373 422 l-27 63 39 102 c55 145 91 263 91
299 0 20 -29 84 -84 182 -46 83 -99 183 -117 221 l-34 70 3 250 c2 138 7 340
12 450 l9 200 76 290 c91 348 115 447 115 483 1 52 17 0 29 -95 22 -161 57
-273 93 -297 27 -17 162 -56 196 -56 22 0 24 -3 17 -37 -25 -136 -20 -128
-103 -179 -102 -63 -263 -226 -319 -321 -134 -229 -133 -486 2 -641 61 -70
175 -133 292 -162 l43 -11 -26 -40 c-47 -75 -60 -143 -32 -176 7 -9 58 -37
113 -63 55 -26 114 -59 131 -73 l31 -27 -63 196 c-35 107 -71 232 -80 277 -31
154 0 414 73 602 105 274 109 403 16 559 -168 281 -393 640 -522 831 -204 304
-201 297 -189 347 12 54 32 91 76 140 42 46 36 52 76 -82z m11523 -95 c151
-281 323 -820 368 -1155 40 -293 7 -491 -132 -798 -36 -79 -68 -164 -71 -187
-5 -47 34 -166 123 -379 l45 -107 -24 -47 c-81 -158 -294 -395 -405 -450 -70
-35 -154 -43 -208 -20 -52 22 -116 81 -158 147 l-42 66 -13 485 c-8 319 -10
615 -5 865 7 346 19 658 23 594 4 -50 53 -128 111 -175 31 -25 71 -65 89 -87
48 -60 109 -191 133 -287 36 -140 16 -224 -79 -330 -27 -30 -57 -70 -66 -87
-15 -30 -38 -135 -49 -228 l-5 -40 53 52 c50 49 142 119 268 205 139 95 269
351 297 587 34 276 -84 557 -351 835 -48 50 -105 105 -128 121 -24 18 -41 38
-41 50 0 11 11 60 24 109 56 203 129 331 185 324 20 -2 33 -16 58 -63z m-4281
-4005 c229 -19 587 -77 824 -135 178 -43 375 -97 383 -104 4 -4 -18 -22 -50
-39 l-58 -31 -145 35 c-210 51 -342 71 -545 85 -290 19 -634 -2 -827 -52 -43
-10 -216 -67 -385 -125 -169 -58 -315 -108 -324 -111 -9 -2 -86 9 -170 26
-420 83 -574 95 -889 67 -369 -33 -638 -75 -901 -141 l-177 -45 -116 27 c-64
15 -111 30 -104 34 54 29 488 164 683 213 128 32 637 140 735 156 41 7 125 13
185 12 133 0 232 -24 568 -136 l222 -74 201 93 c332 155 529 236 604 248 48 8
158 7 286 -3z m414 -422 c0 -18 -11 -135 -24 -259 -27 -254 -34 -275 -114
-362 -217 -233 -706 -351 -1615 -387 -485 -20 -835 26 -1204 157 -40 14 -73
26 -73 27 0 1 -22 130 -50 286 -27 157 -50 293 -50 303 0 16 18 17 228 17 259
0 293 -4 821 -89 201 -33 396 -62 433 -66 84 -8 164 11 390 96 676 253 866
302 1181 308 l77 1 0 -32z m886 -240 c4 -6 7 -37 7 -69 -1 -56 0 -57 22 -49
20 8 23 5 29 -28 10 -62 7 -92 -9 -93 -28 -3 -33 -4 -41 -11 -4 -5 -2 -8 4 -8
7 0 12 -4 12 -10 0 -5 -5 -9 -11 -7 -8 1 -25 -77 -49 -223 -64 -379 -170 -828
-250 -1051 -128 -362 -429 -818 -689 -1046 -86 -75 -195 -154 -260 -188 l-34
-17 -150 150 -150 150 203 366 c111 202 200 370 197 372 -3 3 -146 -8 -319
-25 -678 -67 -1282 -107 -1729 -114 l-135 -2 148 -225 c82 -124 178 -271 214
-327 l66 -102 -184 -199 c-147 -161 -186 -198 -200 -191 -22 12 -357 252 -483
347 -322 243 -599 489 -692 615 -153 208 -341 616 -497 1077 -75 222 -136 452
-136 510 l0 40 46 0 c134 0 475 -46 495 -67 4 -5 58 -69 120 -144 248 -297
515 -573 661 -682 328 -245 654 -339 1173 -340 292 0 538 28 825 94 148 34
213 55 300 99 292 147 591 448 950 955 161 227 241 337 263 360 10 11 30 34
44 52 27 35 42 39 155 42 49 0 79 -3 84 -11z m-1075 -847 c-34 -48 -240 -239
-331 -307 -46 -35 -118 -80 -159 -101 -72 -37 -77 -38 -180 -38 -124 1 -169
13 -416 113 -88 35 -187 72 -220 82 -44 12 -55 19 -40 23 161 48 457 110 600
126 50 6 155 18 235 26 143 16 382 61 470 89 62 20 64 20 41 -13z m-1701 -299
c63 -27 156 -100 213 -165 26 -31 47 -58 47 -62 0 -10 -513 20 -604 36 -32 6
-69 17 -81 25 -26 17 -69 77 -84 116 -10 26 -8 28 27 37 162 43 399 50 482 13z
m2889 -3189 c-4 -340 -12 -679 -18 -753 -10 -126 -14 -140 -51 -215 -66 -135
-392 -659 -439 -707 -35 -36 -717 -397 -1232 -653 l-175 -88 -32 -175 -32
-175 -78 -85 c-42 -47 -117 -131 -166 -186 -48 -56 -91 -104 -95 -109 -4 -4
-45 38 -92 94 -46 56 -110 124 -142 150 -54 46 -81 58 -172 76 l-39 9 -22 110
c-12 61 -25 120 -28 131 -16 50 -314 303 -751 637 -121 92 -233 178 -248 189
-25 20 -54 101 -281 812 -139 435 -252 791 -250 793 1 2 103 -99 225 -225 350
-357 846 -858 957 -967 l101 -99 83 -8 c46 -5 322 -11 614 -15 l530 -7 218
479 218 480 81 28 c266 94 501 259 852 599 83 79 222 224 310 321 87 97 159
176 160 176 0 0 -3 -278 -6 -617z"/>
<path d="M14875 16869 c-245 -20 -661 -84 -938 -144 -89 -20 -186 -41 -215
-47 l-53 -11 -75 -113 c-42 -63 -77 -114 -79 -114 -6 0 21 61 50 113 15 26 26
50 24 51 -8 7 -244 -346 -244 -364 0 -10 -21 -46 -45 -81 -57 -79 -63 -90 -53
-88 16 4 93 -14 93 -21 0 -6 31 -13 150 -36 46 -9 85 -27 115 -55 28 -25 33
-27 83 -19 52 9 74 7 115 -6 12 -4 31 -8 42 -9 11 -1 27 -4 35 -7 8 -4 22 -9
30 -11 8 -3 -9 -5 -37 -4 -46 0 -61 -5 -110 -39 -62 -41 -605 -572 -601 -586
2 -4 39 -32 83 -61 l80 -54 180 110 c99 61 196 119 215 130 19 11 -58 -72
-175 -186 -209 -204 -210 -206 -188 -222 13 -9 69 -57 125 -107 228 -201 380
-283 653 -353 276 -70 523 -99 850 -99 228 1 270 3 485 34 177 25 272 33 387
34 88 1 141 4 125 9 -63 17 -226 19 -545 7 -383 -15 -441 -11 -599 41 -119 39
-308 130 -461 220 -67 40 -144 82 -171 95 -61 28 -203 64 -386 99 -206 39
-209 40 -110 48 47 4 243 11 435 17 193 5 395 12 450 16 193 11 401 50 621
117 l111 34 229 -27 c170 -20 242 -33 279 -50 84 -36 572 -170 623 -170 4 0
-51 29 -123 65 -71 35 -157 86 -190 112 l-60 48 70 12 c60 11 203 69 193 78
-2 2 -35 -2 -73 -10 -39 -7 -111 -16 -160 -19 l-90 -7 -90 81 c-235 210 -453
318 -758 374 -215 40 -307 48 -622 53 l-300 5 -75 41 c-41 22 -100 51 -130 64
-47 20 -50 23 -20 18 46 -7 98 -20 132 -33 23 -10 31 -8 56 12 18 16 33 21 42
16 8 -4 29 -10 47 -13 30 -6 37 -1 116 84 l84 90 219 16 c121 8 359 16 529 17
258 1 328 -2 419 -17 214 -36 408 -104 566 -197 41 -25 78 -43 83 -42 4 1 7
-3 7 -9 0 -6 7 -9 15 -6 9 4 41 -23 90 -76 l76 -82 -7 45 c-4 25 -13 68 -20
95 l-13 50 4 -70 c4 -59 3 -66 -7 -45 -39 85 -62 129 -89 167 -16 25 -27 49
-23 54 3 6 1 16 -6 24 -8 10 -8 15 1 21 8 5 9 3 4 -6 -5 -9 -4 -11 3 -6 7 4
12 14 12 22 0 8 -5 12 -11 8 -6 -3 -3 8 6 26 9 17 14 34 11 38 -3 3 -6 0 -6
-6 0 -7 -4 -12 -8 -12 -9 0 -6 65 3 81 4 5 1 17 -7 26 -9 12 -9 15 -1 9 9 -5
11 -2 7 8 -3 9 -10 16 -15 16 -5 0 -9 10 -9 23 0 27 -90 191 -146 267 -187
252 -388 361 -736 399 -110 12 -433 12 -583 0z m1154 -555 c-9 -12 -9 -13 3
-9 9 4 30 -13 56 -44 l42 -50 -44 25 c-24 14 -50 35 -58 47 -15 24 -13 61 3
51 6 -4 5 -11 -2 -20z m-1089 -679 c239 -33 435 -98 615 -205 58 -34 105 -65
105 -67 0 -3 -53 -2 -117 1 -88 6 -133 14 -183 33 -221 85 -415 141 -560 164
-96 15 -340 6 -440 -16 -41 -9 -115 -30 -165 -45 -49 -16 -91 -28 -92 -26 -12
11 285 131 411 166 83 24 231 22 426 -5z m-528 -300 c10 -22 9 -29 -9 -46 -26
-26 -60 -18 -69 17 -13 52 56 77 78 29z m460 -12 c39 -35 11 -103 -43 -103
-35 0 -59 24 -59 57 0 55 62 83 102 46z m232 -62 c11 -12 17 -23 15 -25 -15
-13 -109 -55 -109 -48 0 5 5 34 11 65 l12 56 26 -13 c14 -8 35 -23 45 -35z
m-917 -120 l23 -53 -23 6 c-12 3 -46 9 -74 12 -29 4 -53 12 -53 18 0 14 25 52
59 89 l26 28 9 -23 c5 -13 20 -47 33 -77z"/>
<path d="M16366 15935 c-9 -26 -7 -32 5 -12 6 10 9 21 6 23 -2 3 -7 -2 -11
-11z"/>
<path d="M10705 15545 c-49 -13 -112 -31 -140 -39 -27 -9 -174 -32 -325 -51
-450 -56 -739 -111 -955 -181 -195 -63 -434 -189 -608 -320 -40 -30 -78 -54
-86 -54 -7 0 -96 18 -198 41 -102 22 -187 38 -189 36 -6 -6 122 -72 168 -86
20 -7 68 -17 107 -24 l71 -12 -37 -30 c-37 -29 -42 -30 -133 -29 -52 1 -126 9
-163 18 -38 9 -74 16 -80 16 -35 -2 310 -150 348 -150 9 0 14 -4 11 -8 -11
-19 -288 -133 -401 -166 -138 -40 -123 -44 85 -21 234 26 326 57 453 154 36
27 76 52 89 56 13 3 96 29 185 57 l162 51 63 -26 c183 -76 411 -115 709 -124
184 -5 223 -3 355 17 133 21 157 22 237 11 49 -6 137 -27 196 -46 122 -39 100
-41 399 30 113 27 161 43 158 51 -3 7 -48 72 -102 144 -53 72 -95 133 -93 135
2 2 65 -26 139 -62 74 -36 153 -73 176 -83 l41 -18 -108 235 c-150 325 -229
462 -280 489 -42 21 -150 17 -254 -11z m-422 -241 c48 -9 87 -19 87 -23 0 -21
-148 -35 -375 -36 -213 0 -252 -3 -345 -24 -218 -48 -390 -113 -570 -213 -148
-83 -160 -89 -160 -85 0 8 187 126 310 197 69 39 153 79 187 90 75 23 267 61
453 89 74 11 146 22 160 25 37 7 154 -3 253 -20z m-95 -251 c52 -44 24 -123
-42 -123 -64 0 -92 74 -46 120 25 25 61 26 88 3z m-484 -79 c35 -34 8 -104
-41 -104 -27 0 -63 33 -63 58 0 52 68 82 104 46z m746 -97 c22 -22 40 -44 40
-48 0 -4 -26 -13 -57 -19 -32 -6 -71 -15 -88 -20 -16 -4 -42 -11 -56 -14 l-26
-6 22 45 c13 24 29 67 36 94 l13 50 38 -21 c20 -12 56 -39 78 -61z m-979 -5
c9 -26 19 -55 24 -65 6 -15 -1 -14 -49 10 -31 15 -56 32 -56 37 0 11 50 66 59
66 3 0 13 -22 22 -48z"/>
<path d="M16080 14880 c44 -34 212 -117 311 -154 95 -35 310 -99 315 -93 10
10 -476 213 -606 252 l-45 14 25 -19z"/>
<path d="M10677 14326 c-26 -7 -50 -16 -54 -19 -10 -10 -12 -76 -3 -82 5 -3 7
-15 5 -26 -6 -31 13 -32 103 -6 76 22 81 23 66 6 -10 -11 -14 -19 -10 -19 8 0
409 151 415 156 2 2 -103 4 -235 3 -161 0 -255 -5 -287 -13z"/>
<path d="M11449 13683 c-1 -5 -1 -12 0 -16 1 -5 -7 -6 -18 -2 -17 5 -22 -1
-31 -37 -23 -88 -25 -93 -53 -93 -15 1 -27 -2 -27 -6 0 -4 -7 -10 -16 -13 -14
-6 -15 -4 -4 9 11 13 11 16 -1 13 -31 -7 -42 -36 -89 -240 -27 -117 -52 -223
-55 -236 -3 -14 -12 -22 -23 -21 -41 4 -46 0 -26 -22 16 -18 19 -37 19 -134 0
-100 3 -117 21 -142 33 -44 83 -57 219 -57 126 -1 158 5 434 71 l154 37 -6
320 c-4 177 -7 376 -7 442 0 101 -3 123 -16 128 -8 3 -13 2 -10 -3 10 -15 -29
-19 -43 -4 -10 11 -15 12 -21 3 -5 -8 -10 -9 -14 -2 -7 12 -46 4 -46 -9 0 -5
-5 -9 -11 -9 -5 0 -8 3 -6 8 3 4 -6 7 -19 7 -13 0 -24 -3 -24 -7 0 -4 -12 -3
-27 3 -51 20 -76 21 -70 4 4 -8 2 -15 -3 -15 -6 0 -10 5 -10 10 0 6 -5 10 -11
10 -5 0 -7 -5 -3 -12 5 -7 3 -8 -7 -2 -8 4 -18 9 -24 11 -5 1 -20 4 -33 7 -13
3 -20 1 -17 -5 4 -5 11 -6 17 -3 6 4 8 2 5 -3 -8 -12 -83 -11 -94 1 -5 5 -2 6
6 1 9 -5 12 -4 7 3 -8 14 -15 15 -17 5z"/>
<path d="M13735 13175 c-41 -10 -45 -13 -20 -14 127 -5 273 -91 484 -282 213
-193 311 -276 566 -478 11 -9 -9 16 -45 54 -36 39 -149 164 -250 280 -212 240
-336 366 -399 403 -84 49 -227 65 -336 37z"/>
<path d="M13990 12980 c40 -87 53 -164 48 -286 -3 -88 -7 -108 -35 -165 -41
-82 -132 -182 -220 -243 l-68 -46 -100 -4 c-111 -4 -218 -33 -338 -92 -98 -48
-147 -84 -315 -227 -191 -163 -241 -200 -327 -243 -188 -92 -276 -72 -692 156
-300 166 -399 193 -564 155 -77 -18 -82 -18 -137 -1 -97 31 -193 87 -259 151
-81 81 -97 131 -97 305 0 140 -9 125 -25 -39 -22 -216 30 -390 137 -465 78
-53 107 -60 267 -61 143 -1 158 -3 330 -47 229 -58 275 -76 387 -151 51 -34
102 -66 113 -72 11 -7 45 -26 75 -43 122 -68 285 -94 400 -62 84 23 192 98
332 229 201 191 298 250 518 315 130 39 149 47 265 113 114 63 165 102 252
188 104 104 142 178 150 293 4 59 1 97 -15 157 -21 83 -68 195 -96 230 -9 11
-3 -9 14 -45z"/>
<path d="M7140 12111 c-99 -74 -375 -201 -436 -201 -14 0 -24 -5 -22 -10 6
-18 161 -129 222 -160 107 -54 182 -34 300 81 57 56 67 71 61 90 -11 39 -89
219 -95 219 -3 0 -16 -9 -30 -19z"/>
</g>
</svg>
